:FULLY-SPECIFIED
:FORCE-ALL-JOINTS-BE-3DOF
:DEGREES
2548
root 4.00618 13.7752 -24.3936 935.244 79.2312 -147.208
lfemur -36.8492 20.8409 -10.8542
ltibia 87.5996 0 0
lfoot -31.8423 25.4946 0
ltoes -39.6677 0 0
rfemur -58.0787 -30.8325 12.4189
rtibia 67.8885 0 0
rfoot -1.894 10.0352 0
rtoes 11.4019 0 0
lowerback 16.3556 -0.395785 -4.99097
upperback -1.55855 -1.12729 3.4559
thorax -10.7803 -0.0954485 6.94568
lowerneck 4.84554 -14.8116 -15.3532
upperneck 1.22718 -20.756 14.1097
head 2.66632 -10.5064 5.88796
lclavicle 3.1122e-16 -1.69253e-14 0
lhumerus -54.907 -41.0151 115.66
lradius 108.41 0 0
lwrist 83.5582 0 0
lhand 9.55789 400.82 0
lfingers 7.12502 0 0
lthumb 34.7051 -652.571 0
rclavicle 3.1122e-16 -1.69253e-14 0
rhumerus 8.56417 -16.7984 -62.2848
rradius 80.4744 0 0
rwrist 37.1976 0 0
rhand -38.7583 -407.973 0
rfingers 7.12502 0 0
rthumb -11.7691 282.435 0
2549
root 3.96396 13.7866 -24.521 935.673 79.0249 -146.798
lfemur -36.8694 20.8282 -10.8938
ltibia 87.5828 0 0
lfoot -31.8458 25.5086 0
ltoes -39.65 0 0
rfemur -58.0846 -30.7877 12.4595
rtibia 67.9637 0 0
rfoot -1.92413 9.93637 0
rtoes 11.37 0 0
lowerback 16.3654 -0.389244 -4.99753
upperback -1.55494 -1.12106 3.45129
thorax -10.7827 -0.0923284 6.94275
lowerneck 4.84463 -14.8124 -15.353
upperneck 1.22456 -20.7575 14.1249
head 2.66768 -10.5073 5.89215
lclavicle 1.91991e-16 -1.68808e-14 0
lhumerus -54.7911 -41.0815 115.619
lradius 108.371 0 0
lwrist 83.5223 0 0
lhand 9.53035 400.838 0
lfingers 7.12502 0 0
lthumb 34.6789 -652.548 0
rclavicle 1.91991e-16 -1.68808e-14 0
rhumerus 8.72983 -16.6545 -62.1817
rradius 80.5197 0 0
rwrist 37.1163 0 0
rhand -38.7024 -407.934 0
rfingers 7.12502 0 0
rthumb -11.7151 282.473 0
2550
root 3.92175 13.7981 -24.6484 936.127 78.8045 -146.363
lfemur -36.89 20.8163 -10.9367
ltibia 87.5636 0 0
lfoot -31.8508 25.522 0
ltoes -39.6309 0 0
rfemur -58.0888 -30.7404 12.5017
rtibia 68.042 0 0
rfoot -1.95588 9.83019 0
rtoes 11.3332 0 0
lowerback 16.3759 -0.382312 -5.00508
upperback -1.5511 -1.11457 3.44637
thorax -10.7853 -0.0890505 6.93998
lowerneck 4.84344 -14.8132 -15.3529
upperneck 1.22246 -20.7592 14.1408
head 2.66937 -10.5083 5.89652
lclavicle 5.52275e-17 -1.68185e-14 0
lhumerus -54.6668 -41.153 115.576
lradius 108.33 0 0
lwrist 83.4846 0 0
lhand 9.4996 400.858 0
lfingers 7.12502 0 0
lthumb 34.6496 -652.521 0
rclavicle 5.52275e-17 -1.68185e-14 0
rhumerus 8.90671 -16.5007 -62.0731
rradius 80.57 0 0
rwrist 37.0315 0 0
rhand -38.6429 -407.893 0
rfingers 7.12502 0 0
rthumb -11.6577 282.513 0
2551
root 3.87954 13.8095 -24.7758 936.627 78.5611 -145.884
lfemur -36.9122 20.804 -10.9844
ltibia 87.5417 0 0
lfoot -31.8571 25.5358 0
ltoes -39.6097 0 0
rfemur -58.0922 -30.6882 12.5476
rtibia 68.1275 0 0
rfoot -1.99071 9.71252 0
rtoes 11.291 0 0
lowerback 16.3873 -0.374687 -5.01373
upperback -1.54688 -1.10752 3.44095
thorax -10.7882 -0.0854611 6.93714
lowerneck 4.84199 -14.8142 -15.3529
upperneck 1.22053 -20.7611 14.1582
head 2.67137 -10.5094 5.90127
lclavicle -1.01319e-16 -1.67412e-14 0
lhumerus -54.529 -41.2324 115.528
lradius 108.284 0 0
lwrist 83.4432 0 0
lhand 9.46485 400.882 0
lfingers 7.12502 0 0
lthumb 34.6166 -652.491 0
rclavicle -1.01319e-16 -1.67412e-14 0
rhumerus 9.10209 -16.3309 -61.954
rradius 80.6267 0 0
rwrist 36.9391 0 0
rhand -38.5773 -407.848 0
rfingers 7.12502 0 0
rthumb -11.5943 282.557 0
2552
root 3.83733 13.821 -24.9032 937.192 78.2855 -145.343
lfemur -36.9372 20.7903 -11.0385
ltibia 87.5167 0 0
lfoot -31.8645 25.5513 0
ltoes -39.5857 0 0
rfemur -58.0958 -30.6293 12.5993
rtibia 68.224 0 0
rfoot -2.03006 9.57923 0
rtoes 11.2427 0 0
lowerback 16.4004 -0.366065 -5.02359
upperback -1.5421 -1.09956 3.43482
thorax -10.7914 -0.0814065 6.93398
lowerneck 4.84033 -14.8153 -15.353
upperneck 1.21846 -20.7632 14.1779
head 2.67366 -10.5107 5.90663
lclavicle -2.79898e-16 -1.66516e-14 0
lhumerus -54.373 -41.3223 115.474
lradius 108.232 0 0
lwrist 83.3965 0 0
lhand 9.42533 400.909 0
lfingers 7.12502 0 0
lthumb 34.5789 -652.457 0
rclavicle -2.79898e-16 -1.66516e-14 0
rhumerus 9.32321 -16.1386 -61.8195
rradius 80.6912 0 0
rwrist 36.8348 0 0
rhand -38.5031 -407.797 0
rfingers 7.12502 0 0
rthumb -11.5227 282.607 0
2553
root 3.79512 13.8324 -25.0306 937.842 77.9688 -144.72
lfemur -36.9661 20.7741 -11.1006
ltibia 87.4883 0 0
lfoot -31.8727 25.5695 0
ltoes -39.5581 0 0
rfemur -58.1005 -30.5615 12.6591
rtibia 68.3354 0 0
rfoot -2.0754 9.42622 0
rtoes 11.188 0 0
lowerback 16.4153 -0.356142 -5.0348
upperback -1.5366 -1.09036 3.42776
thorax -10.795 -0.0767328 6.93026
lowerneck 4.83846 -14.8165 -15.3529
upperneck 1.2159 -20.7657 14.2007
head 2.67625 -10.5122 5.91283
lclavicle -4.82757e-16 -1.65523e-14 0
lhumerus -54.1939 -41.4256 115.412
lradius 108.173 0 0
lwrist 83.3426 0 0
lhand 9.38024 400.939 0
lfingers 7.12502 0 0
lthumb 34.536 -652.418 0
rclavicle -4.82757e-16 -1.65523e-14 0
rhumerus 9.57736 -15.9177 -61.6645
rradius 80.7648 0 0
rwrist 36.7145 0 0
rhand -38.4178 -407.738 0
rfingers 7.12502 0 0
rthumb -11.4403 282.665 0
2554
root 3.7529 13.8439 -25.158 938.597 77.602 -143.997
lfemur -37.0003 20.7545 -11.1721
ltibia 87.4562 0 0
lfoot -31.8813 25.5915 0
ltoes -39.5263 0 0
rfemur -58.1071 -30.4827 12.7291
rtibia 68.4655 0 0
rfoot -2.12817 9.24935 0
rtoes 11.1262 0 0
lowerback 16.4327 -0.344614 -5.04746
upperback -1.53022 -1.0796 3.41958
thorax -10.7993 -0.0712863 6.92572
lowerneck 4.83644 -14.818 -15.3529
upperneck 1.21252 -20.7684 14.2271
head 2.6791 -10.5139 5.92007
lclavicle -7.12145e-16 -1.6446e-14 0
lhumerus -53.9868 -41.5447 115.341
lradius 108.104 0 0
lwrist 83.2799 0 0
lhand 9.32881 400.974 0
lfingers 7.12502 0 0
lthumb 34.487 -652.373 0
rclavicle -7.12145e-16 -1.6446e-14 0
rhumerus 9.8718 -15.6618 -61.484
rradius 80.849 0 0
rwrist 36.5738 0 0
rhand -38.3188 -407.669 0
rfingers 7.12502 0 0
rthumb -11.3447 282.732 0
2555
root 3.71069 13.8553 -25.2854 939.478 77.176 -143.154
lfemur -37.0407 20.7303 -11.2546
ltibia 87.4199 0 0
lfoot -31.8902 25.6184 0
ltoes -39.4895 0 0
rfemur -58.1166 -30.3908 12.8115
rtibia 68.6183 0 0
rfoot -2.18984 9.0445 0
rtoes 11.0568 0 0
lowerback 16.4528 -0.331177 -5.06169
upperback -1.52279 -1.06695 3.41008
thorax -10.8044 -0.0649132 6.92014
lowerneck 4.83428 -14.8196 -15.3526
upperneck 1.20799 -20.7716 14.2581
head 2.6822 -10.5158 5.92858
lclavicle -9.70311e-16 -1.63353e-14 0
lhumerus -53.7467 -41.6826 115.257
lradius 108.023 0 0
lwrist 83.2066 0 0
lhand 9.27025 401.013 0
lfingers 7.12502 0 0
lthumb 34.4313 -652.323 0
rclavicle -9.70311e-16 -1.63353e-14 0
rhumerus 10.2138 -15.3646 -61.2729
rradius 80.945 0 0
rwrist 36.4086 0 0
rhand -38.2036 -407.59 0
rfingers 7.12502 0 0
rthumb -11.2336 282.81 0
2556
root 3.66848 13.8668 -25.4128 940.505 76.6818 -142.173
lfemur -37.0887 20.7005 -11.3497
ltibia 87.3791 0 0
lfoot -31.899 25.6512 0
ltoes -39.447 0 0
rfemur -58.13 -30.2838 12.9084
rtibia 68.7977 0 0
rfoot -2.26186 8.80755 0
rtoes 10.9794 0 0
lowerback 16.4763 -0.315528 -5.07762
upperback -1.51413 -1.05208 3.39903
thorax -10.8102 -0.0574598 6.91325
lowerneck 4.83202 -14.8214 -15.3522
upperneck 1.20199 -20.7752 14.2944
head 2.68555 -10.518 5.93857
lclavicle -1.2595e-15 -1.6223e-14 0
lhumerus -53.4688 -41.8418 115.161
lradius 107.931 0 0
lwrist 83.121 0 0
lhand 9.20377 401.056 0
lfingers 7.12502 0 0
lthumb 34.368 -652.267 0
rclavicle -1.2595e-15 -1.6223e-14 0
rhumerus 10.6106 -15.0199 -61.0264
rradius 81.0542 0 0
rwrist 36.2146 0 0
rhand -38.0698 -407.497 0
rfingers 7.12502 0 0
rthumb -11.1043 282.901 0
2557
root 3.62627 13.8782 -25.5402 941.699 76.1105 -141.034
lfemur -37.1454 20.6639 -11.459
ltibia 87.3335 0 0
lfoot -31.9076 25.6911 0
ltoes -39.398 0 0
rfemur -58.1481 -30.1595 13.0222
rtibia 69.0076 0 0
rfoot -2.34569 8.53438 0
rtoes 10.8933 0 0
lowerback 16.5035 -0.297363 -5.09536
upperback -1.5041 -1.03465 3.38625
thorax -10.817 -0.0487722 6.90483
lowerneck 4.82968 -14.8235 -15.3516
upperneck 1.19417 -20.7793 14.3366
head 2.68913 -10.5205 5.95028
lclavicle -1.58197e-15 -1.61117e-14 0
lhumerus -53.1483 -42.0251 115.049
lradius 107.823 0 0
lwrist 83.0212 0 0
lhand 9.12859 401.104 0
lfingers 7.12502 0 0
lthumb 34.2964 -652.205 0
rclavicle -1.58197e-15 -1.61117e-14 0
rhumerus 11.0695 -14.6213 -60.7393
rradius 81.178 0 0
rwrist 35.9876 0 0
rhand -37.9147 -407.388 0
rfingers 7.12502 0 0
rthumb -10.9546 283.007 0
2558
root 3.58406 13.8897 -25.6676 943.078 75.453 -139.719
lfemur -37.2119 20.6197 -11.5839
ltibia 87.2827 0 0
lfoot -31.9156 25.7392 0
ltoes -39.3419 0 0
rfemur -58.1719 -30.016 13.1549
rtibia 69.2517 0 0
rfoot -2.44277 8.22087 0
rtoes 10.798 0 0
lowerback 16.5348 -0.276378 -5.11504
upperback -1.49252 -1.01434 3.37153
thorax -10.825 -0.0386968 6.89462
lowerneck 4.82731 -14.8258 -15.3506
upperneck 1.18421 -20.784 14.3856
head 2.69292 -10.5234 5.96391
lclavicle -1.93996e-15 -1.6004e-14 0
lhumerus -52.7801 -42.2352 114.921
lradius 107.7 0 0
lwrist 82.9057 0 0
lhand 9.04393 401.158 0
lfingers 7.12502 0 0
lthumb 34.2158 -652.135 0
rclavicle -1.93996e-15 -1.6004e-14 0
rhumerus 11.5977 -14.1626 -60.4067
rradius 81.3178 0 0
rwrist 35.7234 0 0
rhand -37.7359 -407.263 0
rfingers 7.12502 0 0
rthumb -10.782 283.13 0
2559
root 3.54184 13.9011 -25.795 944.663 74.7003 -138.209
lfemur -37.2896 20.5667 -11.7261
ltibia 87.2263 0 0
lfoot -31.9227 25.7966 0
ltoes -39.2779 0 0
rfemur -58.2023 -29.851 13.3087
rtibia 69.5342 0 0
rfoot -2.55456 7.86289 0
rtoes 10.6931 0 0
lowerback 16.5708 -0.25227 -5.13676
upperback -1.47922 -0.990825 3.35466
thorax -10.8341 -0.0270796 6.88239
lowerneck 4.82492 -14.8285 -15.3494
upperneck 1.17178 -20.7891 14.4422
head 2.6969 -10.5266 5.97968
lclavicle -2.33572e-15 -1.59027e-14 0
lhumerus -52.3595 -42.4747 114.774
lradius 107.559 0 0
lwrist 82.7726 0 0
lhand 8.949 401.218 0
lfingers 7.12502 0 0
lthumb 34.1254 -652.057 0
rclavicle -2.33572e-15 -1.59027e-14 0
rhumerus 12.2026 -13.6375 -60.0234
rradius 81.4749 0 0
rwrist 35.4178 0 0
rhand -37.5309 -407.119 0
rfingers 7.12502 0 0
rthumb -10.5841 283.27 0
2560
root 3.49963 13.9126 -25.9224 946.475 73.8434 -136.484
lfemur -37.3795 20.5038 -11.887
ltibia 87.1641 0 0
lfoot -31.9288 25.8643 0
ltoes -39.2053 0 0
rfemur -58.2403 -29.6626 13.4858
rtibia 69.8588 0 0
rfoot -2.68253 7.45632 0
rtoes 10.5779 0 0
lowerback 16.6117 -0.224734 -5.16065
upperback -1.46404 -0.963764 3.33543
thorax -10.8445 -0.0137671 6.86788
lowerneck 4.82254 -14.8314 -15.3477
upperneck 1.15654 -20.7949 14.5069
head 2.70107 -10.5303 5.99783
lclavicle -2.7715e-15 -1.58105e-14 0
lhumerus -51.8816 -42.7464 114.607
lradius 107.398 0 0
lwrist 82.6202 0 0
lhand 8.84302 401.283 0
lfingers 7.12502 0 0
lthumb 34.0244 -651.972 0
rclavicle -2.7715e-15 -1.58105e-14 0
rhumerus 12.8913 -13.0397 -59.5846
rradius 81.6507 0 0
rwrist 35.0665 0 0
rhand -37.2971 -406.954 0
rfingers 7.12502 0 0
rthumb -10.3584 283.432 0
